<?xml version="1.0" encoding="utf-8"?>
<!-- Generator: Adobe Illustrator 27.2.0, SVG Export Plug-In . SVG Version: 6.00 Build 0)  -->
<svg version="1.1" id="Layer_1" xmlns="http://www.w3.org/2000/svg" xmlns:xlink="http://www.w3.org/1999/xlink" x="0px" y="0px"
	 viewBox="0 0 1200 1200" style="enable-background:new 0 0 1200 1200;" xml:space="preserve">
<style type="text/css">
	.st0{fill:none;stroke:#CCCCCC;}
	.st1{font-family:'ArialMT';}
	.st2{font-size:8px;}
	.st3{fill:#E8F6A4;}
	.st4{fill:#91D3A4;}
	.st5{font-family:'Arial-BoldMT';}
	.st6{font-size:10px;}
</style>
<path id="p_1440.5736004473317" class="st0" d="M445.6,1035c-48.6,0-88.1-39.4-88.1-88.1s39.4-88.1,88.1-88.1s88.1,39.4,88.1,88.1
	S494.2,1035,445.6,1035z"/>
<text transform="matrix(1 0 0 1 366.3534 858.8562)" class="st1 st2">ARCELORMITTAL INDIA PRIVATE LIMITED</text>
<path id="p_1231.9582417890663" class="st0" d="M278.3,993.7c-42.2,0-76.3-34.2-76.3-76.3c0-42.2,34.2-76.3,76.3-76.3c0,0,0,0,0,0
	c42.2,0,76.3,34.2,76.3,76.3C354.6,959.5,320.4,993.7,278.3,993.7C278.3,993.7,278.3,993.7,278.3,993.7z"/>
<text transform="matrix(1 0 0 1 213.2121 841.0375)" class="st1 st2">FLIPKART INDIA PRIVATE LIMITED</text>
<path id="p_1435.105052144717" class="st3" d="M445.6,1029.6c-45.6,0-82.6-37-82.6-82.6c0-45.6,37-82.6,82.6-82.6c0,0,0,0,0,0
	c45.6,0,82.6,37,82.6,82.6C528.2,992.6,491.2,1029.5,445.6,1029.6C445.6,1029.6,445.6,1029.6,445.6,1029.6z"/>
<path id="p_1226.4896934864516" class="st4" d="M278.3,988.2c-39.1,0-70.9-31.7-70.9-70.8c0-39.1,31.7-70.9,70.8-70.9c0,0,0,0,0,0
	c39.1,0,70.9,31.7,70.9,70.8C349.1,956.5,317.4,988.2,278.3,988.2C278.3,988.2,278.3,988.2,278.3,988.2z"/>
<text transform="matrix(1 0 0 1 416.6541 941.4396)" class="st5 st6">Netherlands</text>
<text transform="matrix(1 0 0 1 253.8166 911.8655)" class="st5 st6">Singapore</text>
</svg>
